# xmcd CD database file
#
# Track frame offsets:
#	150
#	17612
#	40194
#	53543
#	71986
#	88563
#	100112
#	118395
#	140351
#	155390
#	167722
#	182437
#	203695
#
# Disc length: 2977 seconds
#
# Revision: 2
# Processed by: cddbd v1.5.2PL0 Copyright (c) Steve Scherf et al.
# Submitted via: CDex 1.50
#
DISCID=a60b9f0d
DTITLE=Robin Spielberg - With a Song in My Heart 
DYEAR=2001
DGENRE=New Age
TTITLE0=Memories of You
TTITLE1=Time in a Bottle
TTITLE2=HI Lilli Hi Lo
TTITLE3=Jean
TTITLE4=As Long As He Needs Me
TTITLE5=The Surrey with the Fringe on Top
TTITLE6=Killing Me Softly
TTITLE7=With You
TTITLE8=That's All
TTITLE9=Save the Best for Last
TTITLE10=Once You Lose Your Heart
TTITLE11=Someone That I Used to Love
TTITLE12=With A Song in My Heart
EXTD=YEAR: 2001
EXTT0=
EXTT1=
EXTT2=
EXTT3=
EXTT4=
EXTT5=
EXTT6=
EXTT7=
EXTT8=
EXTT9=
EXTT10=
EXTT11=
EXTT12=
PLAYORDER=
